<svg width="1920" height="800" viewBox="0 0 1920 800" fill="none" xmlns="http://www.w3.org/2000/svg" preserveAspectRatio="xMidYMid slice">
<defs>
<linearGradient id="sky" x1="0%" y1="0%" x2="100%" y2="100%"><stop offset="0%" stop-color="#FCFAF7"/><stop offset="40%" stop-color="#F7F2ED"/><stop offset="75%" stop-color="#F1E7E3"/><stop offset="100%" stop-color="#F8F4F0"/></linearGradient>
<radialGradient id="glow" cx="62%" cy="38%" r="55%"><stop offset="0%" stop-color="#6B1E2D" stop-opacity="0.10"/><stop offset="100%" stop-color="#6B1E2D" stop-opacity="0"/></radialGradient>
<linearGradient id="road" x1="0%" y1="0%" x2="0%" y2="100%"><stop offset="0%" stop-color="#EFEAE3"/><stop offset="100%" stop-color="#E2DAD1"/></linearGradient>
<linearGradient id="beam" x1="0%" y1="50%" x2="100%" y2="50%"><stop offset="0%" stop-color="#FFFDF0" stop-opacity="0.9"/><stop offset="35%" stop-color="#FFE0A0" stop-opacity="0.45"/><stop offset="100%" stop-color="#6B1E2D" stop-opacity="0"/></linearGradient>
<linearGradient id="trail" x1="0%" y1="0%" x2="100%" y2="0%"><stop offset="0%" stop-color="#FF1A44" stop-opacity="0"/><stop offset="70%" stop-color="#FF2E50" stop-opacity="0.35"/><stop offset="100%" stop-color="#FFA8B6" stop-opacity="0.35"/></linearGradient>
<pattern id="dots" width="36" height="36" patternUnits="userSpaceOnUse"><circle cx="18" cy="18" r="1.2" fill="#8B2536" fill-opacity="0.07"/></pattern>
</defs>
<rect width="1920" height="800" fill="url(#sky)"/>
<rect width="1920" height="800" fill="url(#dots)"/>
<rect width="1920" height="800" fill="url(#glow)"/>
<rect x="0" y="448" width="1920" height="352" fill="url(#road)"/>
<line x1="0" y1="446" x2="1920" y2="446" stroke="#C08A94" stroke-width="3" opacity="0.7"/>
<path d="M 0 618 L 1920 618" stroke="#8D8175" stroke-width="4" stroke-dasharray="70 45" opacity="0.5"/>
<line x1="0" y1="738" x2="1920" y2="738" stroke="#FFC048" stroke-width="3" opacity="0.55"/>
<path d="M -100 598 L 980 598" stroke="url(#trail)" stroke-width="7"/>
<path d="M -50 610 L 820 610" stroke="url(#trail)" stroke-width="4"/>
<path d="M 1440 400 L 2100 420" stroke="url(#beam)" stroke-width="22" opacity="0.50"/>
<g transform="translate(980, 172) scale(0.92)"><ellipse cx="500" cy="304" rx="520" ry="22" fill="#1A1A1A" opacity="0.14"/><rect x="30" y="238" width="940" height="16" rx="4" fill="#2A2D35"/><rect x="640" y="252" width="120" height="34" rx="10" fill="#8E959E"/><rect x="646" y="256" width="108" height="10" rx="5" fill="#C3C9D1" opacity="0.7"/><rect x="60" y="252" width="150" height="34" rx="6" fill="#262626"/><rect x="0" y="34" width="762" height="206" rx="10" fill="#1A1A1A"/><rect x="0" y="34" width="762" height="16" rx="8" fill="#3A3D45"/><rect x="0" y="44" width="762" height="4" fill="#8E959E" opacity="0.55"/><rect x="26" y="58" width="7" height="128" rx="3" fill="#303030"/><rect x="84" y="58" width="7" height="128" rx="3" fill="#303030"/><rect x="142" y="58" width="7" height="128" rx="3" fill="#303030"/><rect x="200" y="58" width="7" height="128" rx="3" fill="#303030"/><rect x="258" y="58" width="7" height="128" rx="3" fill="#303030"/><rect x="316" y="58" width="7" height="128" rx="3" fill="#303030"/><rect x="374" y="58" width="7" height="128" rx="3" fill="#303030"/><rect x="432" y="58" width="7" height="128" rx="3" fill="#303030"/><rect x="490" y="58" width="7" height="128" rx="3" fill="#303030"/><rect x="548" y="58" width="7" height="128" rx="3" fill="#303030"/><rect x="606" y="58" width="7" height="128" rx="3" fill="#303030"/><rect x="664" y="58" width="7" height="128" rx="3" fill="#303030"/><rect x="722" y="58" width="7" height="128" rx="3" fill="#303030"/><rect x="0" y="186" width="762" height="54" fill="#6B1E2D"/><rect x="0" y="186" width="762" height="4" fill="#A63047" opacity="0.35"/><rect x="30" y="180" width="16" height="12" rx="3" fill="#8E959E"/><rect x="88" y="180" width="16" height="12" rx="3" fill="#8E959E"/><rect x="146" y="180" width="16" height="12" rx="3" fill="#8E959E"/><rect x="204" y="180" width="16" height="12" rx="3" fill="#8E959E"/><rect x="262" y="180" width="16" height="12" rx="3" fill="#8E959E"/><rect x="320" y="180" width="16" height="12" rx="3" fill="#8E959E"/><rect x="378" y="180" width="16" height="12" rx="3" fill="#8E959E"/><rect x="436" y="180" width="16" height="12" rx="3" fill="#8E959E"/><rect x="494" y="180" width="16" height="12" rx="3" fill="#8E959E"/><rect x="552" y="180" width="16" height="12" rx="3" fill="#8E959E"/><rect x="610" y="180" width="16" height="12" rx="3" fill="#8E959E"/><rect x="668" y="180" width="16" height="12" rx="3" fill="#8E959E"/><rect x="726" y="180" width="16" height="12" rx="3" fill="#8E959E"/><g transform="translate(150, 108) scale(1.15)"><path d="M -38,16 L -40,-12 L -22,4 L -10,-22 L 2,2 L 16,-22 L 26,4 L 42,-12 L 40,16 Z" fill="#F8F7EF"/><circle cx="-40" cy="-16" r="5" fill="#F8F7EF"/><circle cx="-10" cy="-26" r="5" fill="#F8F7EF"/><circle cx="16" cy="-26" r="5" fill="#F8F7EF"/><circle cx="42" cy="-16" r="5" fill="#F8F7EF"/><rect x="-40" y="18" width="80" height="8" rx="3" fill="#F8F7EF"/></g><text x="360" y="128" fill="#F8F7EF" font-family="Arial Black, Arial, system-ui, sans-serif" font-size="66" font-weight="900" letter-spacing="6">ASMA</text><rect x="-6" y="52" width="10" height="170" rx="4" fill="#262626"/><rect x="2" y="150" width="10" height="10" rx="2" fill="#C43852"/><path d="M772 240 L772 96 L792 68 L900 68 L930 92 L978 100 L978 240 Z" fill="#8B2536"/><path d="M772 240 L772 96 L792 68 L820 68 L820 240 Z" fill="#6B1E2D" opacity="0.55"/><path d="M930 92 L978 100 L978 118 L930 110 Z" fill="#A63047" opacity="0.5"/><path d="M880 80 L906 86 L918 118 L880 118 Z" fill="#182A36"/><path d="M884 84 L892 86 L890 112 L884 112 Z" fill="#4A6575" opacity="0.5"/><rect x="836" y="80" width="40" height="40" rx="4" fill="#182A36"/><rect x="840" y="84" width="12" height="32" rx="3" fill="#4A6575" opacity="0.45"/><path d="M824 124 L824 238" stroke="#521521" stroke-width="2"/><rect x="834" y="150" width="22" height="6" rx="3" fill="#8E959E"/><rect x="800" y="196" width="26" height="6" rx="3" fill="#4F555D"/><rect x="800" y="216" width="26" height="6" rx="3" fill="#4F555D"/><rect x="944" y="150" width="30" height="46" rx="4" fill="#521521"/><rect x="950" y="156" width="18" height="6" rx="3" fill="#4F555D"/><rect x="950" y="168" width="18" height="6" rx="3" fill="#4F555D"/><rect x="946" y="206" width="32" height="22" rx="5" fill="#FFFDF0"/><rect x="946" y="206" width="32" height="22" rx="5" fill="#FFE0A0" opacity="0.5"/><rect x="938" y="232" width="46" height="18" rx="5" fill="#4F555D"/><rect x="760" y="52" width="10" height="150" rx="4" fill="#8E959E"/><circle cx="150" cy="254" r="46" fill="#131417"/><circle cx="150" cy="254" r="39.6" fill="none" stroke="#26282E" stroke-width="4.6"/><circle cx="150" cy="254" r="27.6" fill="#8E959E"/><circle cx="150" cy="254" r="27.6" fill="none" stroke="#4F555D" stroke-width="1"/><circle cx="150" cy="254" r="23.0" fill="#C3C9D1"/><circle cx="168.4" cy="254.0" r="5.1" fill="#4F555D"/><circle cx="159.2" cy="269.9" r="5.1" fill="#4F555D"/><circle cx="140.8" cy="269.9" r="5.1" fill="#4F555D"/><circle cx="131.6" cy="254.0" r="5.1" fill="#4F555D"/><circle cx="140.8" cy="238.1" r="5.1" fill="#4F555D"/><circle cx="159.2" cy="238.1" r="5.1" fill="#4F555D"/><circle cx="150" cy="254" r="7.8" fill="#6B1E2D"/><circle cx="150" cy="254" r="4.1" fill="#C3C9D1"/><circle cx="224" cy="254" r="46" fill="#131417"/><circle cx="224" cy="254" r="39.6" fill="none" stroke="#26282E" stroke-width="4.6"/><circle cx="224" cy="254" r="27.6" fill="#8E959E"/><circle cx="224" cy="254" r="27.6" fill="none" stroke="#4F555D" stroke-width="1"/><circle cx="224" cy="254" r="23.0" fill="#C3C9D1"/><circle cx="242.4" cy="254.0" r="5.1" fill="#4F555D"/><circle cx="233.2" cy="269.9" r="5.1" fill="#4F555D"/><circle cx="214.8" cy="269.9" r="5.1" fill="#4F555D"/><circle cx="205.6" cy="254.0" r="5.1" fill="#4F555D"/><circle cx="214.8" cy="238.1" r="5.1" fill="#4F555D"/><circle cx="233.2" cy="238.1" r="5.1" fill="#4F555D"/><circle cx="224" cy="254" r="7.8" fill="#6B1E2D"/><circle cx="224" cy="254" r="4.1" fill="#C3C9D1"/><circle cx="298" cy="254" r="46" fill="#131417"/><circle cx="298" cy="254" r="39.6" fill="none" stroke="#26282E" stroke-width="4.6"/><circle cx="298" cy="254" r="27.6" fill="#8E959E"/><circle cx="298" cy="254" r="27.6" fill="none" stroke="#4F555D" stroke-width="1"/><circle cx="298" cy="254" r="23.0" fill="#C3C9D1"/><circle cx="316.4" cy="254.0" r="5.1" fill="#4F555D"/><circle cx="307.2" cy="269.9" r="5.1" fill="#4F555D"/><circle cx="288.8" cy="269.9" r="5.1" fill="#4F555D"/><circle cx="279.6" cy="254.0" r="5.1" fill="#4F555D"/><circle cx="288.8" cy="238.1" r="5.1" fill="#4F555D"/><circle cx="307.2" cy="238.1" r="5.1" fill="#4F555D"/><circle cx="298" cy="254" r="7.8" fill="#6B1E2D"/><circle cx="298" cy="254" r="4.1" fill="#C3C9D1"/><circle cx="856" cy="254" r="46" fill="#131417"/><circle cx="856" cy="254" r="39.6" fill="none" stroke="#26282E" stroke-width="4.6"/><circle cx="856" cy="254" r="27.6" fill="#8E959E"/><circle cx="856" cy="254" r="27.6" fill="none" stroke="#4F555D" stroke-width="1"/><circle cx="856" cy="254" r="23.0" fill="#C3C9D1"/><circle cx="874.4" cy="254.0" r="5.1" fill="#4F555D"/><circle cx="865.2" cy="269.9" r="5.1" fill="#4F555D"/><circle cx="846.8" cy="269.9" r="5.1" fill="#4F555D"/><circle cx="837.6" cy="254.0" r="5.1" fill="#4F555D"/><circle cx="846.8" cy="238.1" r="5.1" fill="#4F555D"/><circle cx="865.2" cy="238.1" r="5.1" fill="#4F555D"/><circle cx="856" cy="254" r="7.8" fill="#6B1E2D"/><circle cx="856" cy="254" r="4.1" fill="#C3C9D1"/><circle cx="936" cy="254" r="46" fill="#131417"/><circle cx="936" cy="254" r="39.6" fill="none" stroke="#26282E" stroke-width="4.6"/><circle cx="936" cy="254" r="27.6" fill="#8E959E"/><circle cx="936" cy="254" r="27.6" fill="none" stroke="#4F555D" stroke-width="1"/><circle cx="936" cy="254" r="23.0" fill="#C3C9D1"/><circle cx="954.4" cy="254.0" r="5.1" fill="#4F555D"/><circle cx="945.2" cy="269.9" r="5.1" fill="#4F555D"/><circle cx="926.8" cy="269.9" r="5.1" fill="#4F555D"/><circle cx="917.6" cy="254.0" r="5.1" fill="#4F555D"/><circle cx="926.8" cy="238.1" r="5.1" fill="#4F555D"/><circle cx="945.2" cy="238.1" r="5.1" fill="#4F555D"/><circle cx="936" cy="254" r="7.8" fill="#6B1E2D"/><circle cx="936" cy="254" r="4.1" fill="#C3C9D1"/></g>
</svg>
